<svg xmlns="http://www.w3.org/2000/svg" xmlns:xlink="http://www.w3.org/1999/xlink" data-name="Layer 1" viewBox="0 0 130 130"><defs><linearGradient id="b" x1="-670.55" x2="-639.1" y1="279.27" y2="279.27" gradientTransform="rotate(134.41 -243.912 320.164)" gradientUnits="userSpaceOnUse"><stop offset="0" stop-color="#ccc"/><stop offset="1" stop-color="#cdcdcd"/><stop offset="1" stop-color="#dbdbdb"/><stop offset="1" stop-color="#f2f2f2"/></linearGradient><linearGradient id="a" x1="188" x2="229.62" y1="869.92" y2="869.92" gradientTransform="translate(-131.18 -822.25)" gradientUnits="userSpaceOnUse"><stop offset="0" stop-color="#ccc"/><stop offset=".35" stop-color="#dbdbdb"/><stop offset="1" stop-color="#f2f2f2"/></linearGradient><linearGradient id="d" x1="9.78" x2="56.14" y1="1319.74" y2="1319.74" gradientTransform="rotate(-90 -587.81 692.55)" xlink:href="#a"/><linearGradient id="e" x1="430.61" x2="469.64" y1="869.54" y2="869.54" gradientTransform="translate(-397.1 -819.04)" xlink:href="#a"/><linearGradient id="f" x1="-186.31" x2="-138.27" y1="1361.58" y2="1361.58" gradientTransform="rotate(-90 -693.03 602.52)" gradientUnits="userSpaceOnUse"><stop offset=".41" stop-color="#ccc"/><stop offset=".62" stop-color="#dbdbdb"/><stop offset="1" stop-color="#f2f2f2"/></linearGradient><linearGradient id="g" x1="148.3" x2="187.33" y1="820.14" y2="820.14" gradientTransform="translate(-74.74 -743.69)" xlink:href="#b"/><linearGradient id="h" x1="-1116" x2="-1083.96" y1="912.82" y2="912.82" gradientTransform="rotate(180 -494.25 492.4)" gradientUnits="userSpaceOnUse"><stop offset="1" stop-color="#ccc"/><stop offset="1" stop-color="#dbdbdb"/><stop offset="1" stop-color="#f2f2f2"/></linearGradient><linearGradient id="i" x1="8.98" x2="42.53" y1="1214.87" y2="1214.87" gradientTransform="rotate(-115.15 -308.614 609.876)" gradientUnits="userSpaceOnUse"><stop offset=".35" stop-color="#ccc"/><stop offset=".71" stop-color="#cecece"/><stop offset=".83" stop-color="#d5d5d5"/><stop offset=".92" stop-color="#e0e0e0"/><stop offset="1" stop-color="#f1f1f1"/><stop offset="1" stop-color="#f2f2f2"/></linearGradient><linearGradient id="c" x1="50.18" x2="38.6" y1="117.68" y2="124.14" gradientUnits="userSpaceOnUse"><stop offset=".59" stop-color="#0baeff"/><stop offset=".95" stop-color="#f2f2f2"/></linearGradient><linearGradient id="j" x1="80.41" x2="68.82" y1="114.84" y2="121.31" xlink:href="#c"/><linearGradient id="k" x1="65.3" x2="53.71" y1="95.84" y2="102.31" xlink:href="#c"/><linearGradient id="l" x1="36.54" x2="24.96" y1="97.54" y2="104" xlink:href="#c"/><clipPath id="m"><path fill="none" d="M98.85,86.44a59.25,59.25,0,0,0,5.48,10c2.17,3.27,2,7.89-1.09,10.29l-.11.08a7,7,0,0,1-8.55,0l-.11-.08c-3.1-2.4-3.29-7-1.1-10.29A54.71,54.71,0,0,0,98.85,86.44Z"/></clipPath></defs><path fill="#e6e6e6" d="M66.72,39.14A32.1,32.1,0,0,1,57.53,57.9c-.49.49-1,1-1.52,1.42a31.53,31.53,0,0,1-8.13,5.22,31.11,31.11,0,0,1-5,1.75,29.19,29.19,0,0,1-3.56.73c-.68.09-1.35.17-2,.22h0A32.17,32.17,0,0,1,14.23,60c-.79-.65-1.55-1.34-2.29-2.08A32.05,32.05,0,0,1,3.66,43.7,32.54,32.54,0,0,1,2.9,30a32,32,0,0,1,7-15.47,28.76,28.76,0,0,1,2-2.25,31.26,31.26,0,0,1,3.57-3.08,32.12,32.12,0,0,1,26-5.63h.1a32.74,32.74,0,0,1,11,4.65A32.32,32.32,0,0,1,66.72,39.14Z" style="&#10;    fill: #FCB641;&#10;"/><path fill="#ccc" d="M47.88,64.54A31.93,31.93,0,0,1,39.33,67c-.68.1-1.36.18-2,.23h0l-.09-.12a5.94,5.94,0,0,1-.79-1.91,5.84,5.84,0,0,1,.27-3.35,5.86,5.86,0,0,1,1.3-2c.09-.08.18-.17.27-.24a2.11,2.11,0,0,1,.23-.19,1.64,1.64,0,0,1,.26-.2l.24-.16.33-.2.26-.13.16-.08a6.77,6.77,0,0,1,.71-.26h0l.38-.1.48-.08.29,0H42a5.74,5.74,0,0,1,2.21.39A5.82,5.82,0,0,1,47.88,64.54Z"/><path fill="#b3b3b3" d="M42,58.15h0A5.81,5.81,0,0,0,39.33,67c-.68.1-1.36.18-2,.23l-.09-.12a5.94,5.94,0,0,1-.79-1.91A6.44,6.44,0,0,1,36.28,64a5.76,5.76,0,0,1,.4-2.11,5.86,5.86,0,0,1,1.3-2c.09-.08.18-.17.27-.24a2.11,2.11,0,0,1,.23-.19,1.64,1.64,0,0,1,.26-.2l.24-.16.33-.2.26-.13.16-.08a6.77,6.77,0,0,1,.71-.26h0l.38-.1.48-.08.29,0H42Z" opacity=".5"/><path fill="#1a1a1a" d="M34.73,68.84A33.74,33.74,0,1,1,42,2.15a33.16,33.16,0,0,1,7,2.37A33.74,33.74,0,0,1,58.59,59a33.44,33.44,0,0,1-10.1,6.95,33.85,33.85,0,0,1-8.94,2.59c-.57.08-1.14.15-1.71.2h0l-.44,0C36.51,68.81,35.62,68.84,34.73,68.84Zm0-64.48A30.74,30.74,0,1,0,36.8,65.77l.38,0c.64,0,1.29-.12,1.94-.21a30.74,30.74,0,0,0,8.15-2.36,30.36,30.36,0,0,0,9.2-6.33,30.78,30.78,0,0,0,0-43.47,30.38,30.38,0,0,0-8.76-6.13,29.87,29.87,0,0,0-6.39-2.16A30.59,30.59,0,0,0,34.69,4.36Z"/><circle cx="72.88" cy="55.25" r="15.72" fill="#92C7D3" transform="rotate(-57.72 72.877 55.256)"/><circle cx="77.62" cy="47.67" r="20.81" fill="#92C7D3" transform="rotate(-80.24 77.627 47.667)"/><circle cx="39.38" cy="71.78" r="23.18" fill="#92C7D3" transform="rotate(-19.53 39.396 71.782)"/><circle cx="53.02" cy="50.51" r="19.51" fill="#92C7D3" transform="rotate(-79.11 53.022 50.504)"/><circle cx="66.02" cy="71.78" r="24.02" fill="#92C7D3" transform="rotate(-39.73 66.015 71.773)"/><path fill="#1a1a1a" d="M42.27,77.28A27.12,27.12,0,0,0,53.91,91,23.5,23.5,0,0,0,71,93.65a23.08,23.08,0,0,0,14.16-9.88A25.65,25.65,0,0,0,89,66.28,23.08,23.08,0,0,1,87.14,85a23.93,23.93,0,0,1-6.48,7.41,23.94,23.94,0,0,1-18.91,4.34A24.74,24.74,0,0,1,52.67,93,24.22,24.22,0,0,1,42.27,77.28Z"/><circle cx="93.07" cy="76.45" r="19.51" fill="#92C7D3" transform="rotate(-56 92.307 76.126)"/><circle cx="111.48" cy="71.98" r="16.02" fill="#92C7D3" transform="rotate(-74.3 112.32 72.14)"/><circle cx="97.81" cy="51.98" r="16.77" fill="#92C7D3" transform="rotate(-29.26 97.81 51.986)"/><path fill="#1a1a1a" d="M93,97.42a20.74,20.74,0,0,1-11.78-3.63c-.4-.27-.8-.57-1.22-.91a25.44,25.44,0,0,1-19.91,3.8,25.19,25.19,0,0,1-8.37-3.52A24.68,24.68,0,1,1,31.13,48.52l1-.33q.09-.86.24-1.65A21,21,0,0,1,57,29.87a21.43,21.43,0,0,1,5.18,1.71,22.31,22.31,0,0,1,33,2.32A18.26,18.26,0,0,1,115.82,55l.32.08h0a17.52,17.52,0,0,1-6.53,34.31A21.12,21.12,0,0,1,93,97.42ZM80.08,89.48a1.5,1.5,0,0,1,1,.38,20.74,20.74,0,0,0,1.83,1.46,18.1,18.1,0,0,0,24.81-4.4,1.51,1.51,0,0,1,1.47-.61A14.51,14.51,0,0,0,115.34,58h0a12.72,12.72,0,0,0-1.55-.34,1.5,1.5,0,0,1-1.21-1.85A15.25,15.25,0,0,0,94.82,37a1.51,1.51,0,0,1-1.51-.6,19.31,19.31,0,0,0-29.76-2,1.51,1.51,0,0,1-1.82.29,17.71,17.71,0,0,0-5.31-1.92A18,18,0,0,0,35.33,47.1,18.94,18.94,0,0,0,35,49.44a1.51,1.51,0,0,1-1.12,1.37c-.65.17-1.23.34-1.78.54A21.68,21.68,0,1,0,51,90.11a1.5,1.5,0,0,1,1.66,0,22.52,22.52,0,0,0,26.56-.37A1.48,1.48,0,0,1,80.08,89.48Z"/><path fill="#1a1a1a" d="M114.54,54.05a18.17,18.17,0,0,0-4.26-11.69,16.49,16.49,0,0,0-21.89-2.85,18.22,18.22,0,0,0-7.11,10.2A15.73,15.73,0,0,1,87,37.66a17.18,17.18,0,0,1,13.3-3.9A18,18,0,0,1,107,36.11a17.22,17.22,0,0,1,5.15,4.83A15.74,15.74,0,0,1,114.54,54.05Z"/><path fill="url(#c)" d="M51.85,105.32a58.67,58.67,0,0,0,5.49,10c2.17,3.28,2,7.89-1.1,10.3l-.1.08a7,7,0,0,1-8.56,0l-.11-.08c-3.1-2.41-3.28-7-1.09-10.3A54,54,0,0,0,51.85,105.32Z"/><path fill="#0b99d1" d="M56.24,125.6a.81.81,0,0,1-.1.09,7,7,0,0,1-8.56,0l-.11-.09a6.49,6.49,0,0,1-2.25-3.37,7,7,0,0,0,8.13-.3l.1-.08c3.11-2.41,3.27-7,1.1-10.29-1.09-1.66-2.19-3.45-3.14-5.16q.24-.56.45-1.08a57.85,57.85,0,0,0,5.48,10C59.5,118.58,59.35,123.2,56.24,125.6Z" opacity=".5"/><path fill="#1a1a1a" d="M51.86,128.64a8.54,8.54,0,0,1-5.2-1.76l-.11-.09c-3.57-2.77-4.19-8.18-1.42-12.31a53.57,53.57,0,0,0,5.33-9.7,1.49,1.49,0,0,1,1.39-1h0a1.52,1.52,0,0,1,1.4,1,56.34,56.34,0,0,0,5.33,9.7c2.75,4.15,2.12,9.55-1.43,12.3l-.1.08A8.53,8.53,0,0,1,51.86,128.64Zm0-19.67a64.19,64.19,0,0,1-4.24,7.18c-1.63,2.43-1.8,6.28.77,8.27l.11.08a5.51,5.51,0,0,0,6.72,0l.1-.08c2.59-2,2.42-5.78.77-8.28h0A78.87,78.87,0,0,1,51.86,109Z"/><path fill="url(#j)" d="M82.08,102.49a58.67,58.67,0,0,0,5.49,10c2.16,3.27,2,7.89-1.1,10.29l-.11.08a7,7,0,0,1-8.55,0l-.11-.08c-3.1-2.4-3.29-7-1.1-10.29A54.39,54.39,0,0,0,82.08,102.49Z"/><path fill="#0b99d1" d="M86.47,122.77l-.11.08a7,7,0,0,1-8.56,0l-.1-.08a6.54,6.54,0,0,1-2.26-3.37,7,7,0,0,0,8.14-.3l.1-.09c3.1-2.4,3.26-7,1.1-10.29-1.09-1.66-2.19-3.45-3.14-5.15.16-.37.31-.73.44-1.08a59.25,59.25,0,0,0,5.48,10C89.73,115.75,89.57,120.37,86.47,122.77Z" opacity=".5"/><path fill="#1a1a1a" d="M82.08,125.81A8.48,8.48,0,0,1,76.89,124l-.11-.08c-3.57-2.77-4.2-8.18-1.42-12.32a52.2,52.2,0,0,0,5.32-9.7,1.51,1.51,0,0,1,1.4-1h0a1.49,1.49,0,0,1,1.39,1,56.48,56.48,0,0,0,5.34,9.69c2.74,4.15,2.12,9.56-1.43,12.31l-.11.08A8.49,8.49,0,0,1,82.08,125.81Zm0-19.67a66.64,66.64,0,0,1-4.24,7.17c-1.63,2.43-1.8,6.29.77,8.28l.1.08a5.54,5.54,0,0,0,6.73,0l.1-.08c2.58-2,2.42-5.79.76-8.28h0A80.24,80.24,0,0,1,82.09,106.14Z"/><path fill="url(#k)" d="M67,83.49a58.54,58.54,0,0,0,5.48,10c2.17,3.27,2,7.89-1.1,10.29l-.1.08a7,7,0,0,1-8.56,0l-.1-.08c-3.11-2.4-3.29-7-1.1-10.29A54.39,54.39,0,0,0,67,83.49Z"/><path fill="#0b99d1" d="M71.35,103.77a.39.39,0,0,1-.1.08,7,7,0,0,1-8.56,0l-.1-.08a6.54,6.54,0,0,1-2.26-3.37,7,7,0,0,0,8.13-.3l.11-.09c3.1-2.4,3.26-7,1.09-10.29-1.09-1.66-2.19-3.45-3.14-5.15q.24-.55.45-1.08a57.85,57.85,0,0,0,5.48,10C74.62,96.75,74.46,101.37,71.35,103.77Z" opacity=".5"/><path fill="#1a1a1a" d="M67,106.81A8.48,8.48,0,0,1,61.78,105l-.11-.08c-3.58-2.77-4.2-8.18-1.43-12.32a52.91,52.91,0,0,0,5.33-9.7A1.5,1.5,0,0,1,67,82h0a1.49,1.49,0,0,1,1.39,1,57,57,0,0,0,5.33,9.69c2.75,4.15,2.12,9.56-1.43,12.31l-.1.08A8.51,8.51,0,0,1,67,106.81Zm0-19.67a67.5,67.5,0,0,1-4.23,7.18c-1.63,2.42-1.8,6.28.77,8.27l.1.08a5.52,5.52,0,0,0,6.72,0l.1-.08c2.59-2,2.42-5.79.77-8.28h0A80.26,80.26,0,0,1,67,87.14Z"/><path fill="url(#l)" d="M38.22,85.18a58.54,58.54,0,0,0,5.48,10c2.17,3.28,2,7.89-1.1,10.3l-.1.08a7,7,0,0,1-8.56,0l-.1-.08c-3.11-2.41-3.29-7-1.1-10.3A54.07,54.07,0,0,0,38.22,85.18Z"/><path fill="#0b99d1" d="M42.6,105.46a.43.43,0,0,1-.1.09,7,7,0,0,1-8.56,0l-.1-.09a6.5,6.5,0,0,1-2.26-3.37,7,7,0,0,0,8.13-.3l.11-.08c3.1-2.41,3.26-7,1.09-10.29-1.09-1.66-2.19-3.45-3.14-5.16q.24-.56.45-1.08a57.85,57.85,0,0,0,5.48,10C45.87,98.44,45.71,103.06,42.6,105.46Z" opacity=".5"/><path fill="#1a1a1a" d="M38.22,108.5A8.54,8.54,0,0,1,33,106.74l-.11-.09c-3.58-2.77-4.2-8.18-1.43-12.31a53.24,53.24,0,0,0,5.33-9.7,1.5,1.5,0,0,1,1.4-1h0a1.51,1.51,0,0,1,1.4,1A56.63,56.63,0,0,0,45,94.34h0c2.75,4.15,2.12,9.56-1.43,12.31l-.11.09A8.54,8.54,0,0,1,38.22,108.5Zm0-19.67A64.19,64.19,0,0,1,34,96c-1.63,2.43-1.79,6.28.78,8.27l.1.08a5.52,5.52,0,0,0,6.72,0l.11-.08c2.58-2,2.41-5.78.76-8.28h0A78.87,78.87,0,0,1,38.22,88.83Z"/><g clip-path="url(#m)"><polygon fill="#0baeff" points="106.5 107.75 104.71 108.75 93.74 108.75 91.18 104.17 91.18 88.43 94.75 86.44 106.5 86.44 106.5 107.75"/><polygon fill="#0baeff" points="93.71 108.75 91.18 104.22 91.18 104.17 93.74 108.75 93.71 108.75"/><polygon fill="#0caeff" points="93.69 108.75 91.18 104.26 91.18 104.22 93.71 108.75 93.69 108.75"/><polygon fill="#0dafff" points="93.67 108.75 91.18 104.3 91.18 104.26 93.69 108.75 93.67 108.75"/><polygon fill="#0eafff" points="93.64 108.75 91.18 104.34 91.18 104.3 93.67 108.75 93.64 108.75"/><polygon fill="#0fafff" points="93.62 108.75 91.18 104.38 91.18 104.34 93.64 108.75 93.62 108.75"/><polygon fill="#10afff" points="93.6 108.75 91.18 104.42 91.18 104.38 93.62 108.75 93.6 108.75"/><polygon fill="#11b0ff" points="93.57 108.75 91.18 104.47 91.18 104.42 93.6 108.75 93.57 108.75"/><polygon fill="#12b0ff" points="93.55 108.75 91.18 104.51 91.18 104.47 93.57 108.75 93.55 108.75"/><polygon fill="#13b0ff" points="93.53 108.75 91.18 104.55 91.18 104.51 93.55 108.75 93.53 108.75"/><polygon fill="#14b1fe" points="93.5 108.75 91.18 104.59 91.18 104.55 93.53 108.75 93.5 108.75"/><polygon fill="#15b1fe" points="93.48 108.75 91.18 104.63 91.18 104.59 93.5 108.75 93.48 108.75"/><polygon fill="#16b1fe" points="93.46 108.75 91.18 104.67 91.18 104.63 93.48 108.75 93.46 108.75"/><polygon fill="#17b2fe" points="93.43 108.75 91.18 104.72 91.18 104.67 93.46 108.75 93.43 108.75"/><polygon fill="#18b2fe" points="93.41 108.75 91.18 104.76 91.18 104.72 93.43 108.75 93.41 108.75"/><polygon fill="#19b2fe" points="93.39 108.75 91.18 104.8 91.18 104.76 93.41 108.75 93.39 108.75"/><polygon fill="#1ab2fe" points="93.36 108.75 91.18 104.84 91.18 104.8 93.39 108.75 93.36 108.75"/><polygon fill="#1bb3fe" points="93.34 108.75 91.18 104.88 91.18 104.84 93.36 108.75 93.34 108.75"/><polygon fill="#1cb3fe" points="93.32 108.75 91.18 104.92 91.18 104.88 93.34 108.75 93.32 108.75"/><polygon fill="#1db3fe" points="93.29 108.75 91.18 104.97 91.18 104.92 93.32 108.75 93.29 108.75"/><polygon fill="#1eb4fe" points="93.27 108.75 91.18 105.01 91.18 104.97 93.29 108.75 93.27 108.75"/><polygon fill="#1fb4fe" points="93.25 108.75 91.18 105.05 91.18 105.01 93.27 108.75 93.25 108.75"/><polygon fill="#20b4fe" points="93.22 108.75 91.18 105.09 91.18 105.05 93.25 108.75 93.22 108.75"/><polygon fill="#21b5fe" points="93.2 108.75 91.18 105.13 91.18 105.09 93.22 108.75 93.2 108.75"/><polygon fill="#22b5fe" points="93.18 108.75 91.18 105.18 91.18 105.13 93.2 108.75 93.18 108.75"/><polygon fill="#23b5fe" points="93.15 108.75 91.18 105.22 91.18 105.18 93.18 108.75 93.15 108.75"/><polygon fill="#24b5fe" points="93.13 108.75 91.18 105.26 91.18 105.22 93.15 108.75 93.13 108.75"/><polygon fill="#25b6fe" points="93.11 108.75 91.18 105.3 91.18 105.26 93.13 108.75 93.11 108.75"/><polygon fill="#26b6fd" points="93.08 108.75 91.18 105.34 91.18 105.3 93.11 108.75 93.08 108.75"/><polygon fill="#27b6fd" points="93.06 108.75 91.18 105.39 91.18 105.34 93.08 108.75 93.06 108.75"/><polygon fill="#28b7fd" points="93.04 108.75 91.18 105.43 91.18 105.39 93.06 108.75 93.04 108.75"/><polygon fill="#29b7fd" points="93.01 108.75 91.18 105.47 91.18 105.43 93.04 108.75 93.01 108.75"/><polygon fill="#2ab7fd" points="92.99 108.75 91.18 105.51 91.18 105.47 93.01 108.75 92.99 108.75"/><polygon fill="#2bb7fd" points="92.97 108.75 91.18 105.55 91.18 105.51 92.99 108.75 92.97 108.75"/><polygon fill="#2cb8fd" points="92.94 108.75 91.18 105.59 91.18 105.55 92.97 108.75 92.94 108.75"/><polygon fill="#2db8fd" points="92.92 108.75 91.18 105.64 91.18 105.59 92.94 108.75 92.92 108.75"/><polygon fill="#2eb8fd" points="92.9 108.75 91.18 105.68 91.18 105.64 92.92 108.75 92.9 108.75"/><polygon fill="#2fb9fd" points="92.87 108.75 91.18 105.72 91.18 105.68 92.9 108.75 92.87 108.75"/><polygon fill="#30b9fd" points="92.85 108.75 91.18 105.76 91.18 105.72 92.87 108.75 92.85 108.75"/><polygon fill="#31b9fd" points="92.83 108.75 91.18 105.8 91.18 105.76 92.85 108.75 92.83 108.75"/><polygon fill="#32bafd" points="92.8 108.75 91.18 105.84 91.18 105.8 92.83 108.75 92.8 108.75"/><polygon fill="#33bafd" points="92.78 108.75 91.18 105.89 91.18 105.84 92.8 108.75 92.78 108.75"/><polygon fill="#34bafd" points="92.76 108.75 91.18 105.93 91.18 105.89 92.78 108.75 92.76 108.75"/><polygon fill="#35bafd" points="92.73 108.75 91.18 105.97 91.18 105.93 92.76 108.75 92.73 108.75"/><polygon fill="#36bbfd" points="92.71 108.75 91.18 106.01 91.18 105.97 92.73 108.75 92.71 108.75"/><polygon fill="#37bbfd" points="92.69 108.75 91.18 106.05 91.18 106.01 92.71 108.75 92.69 108.75"/><polygon fill="#38bbfc" points="92.66 108.75 91.18 106.1 91.18 106.05 92.69 108.75 92.66 108.75"/><polygon fill="#39bcfc" points="92.64 108.75 91.18 106.14 91.18 106.1 92.66 108.75 92.64 108.75"/><polygon fill="#3abcfc" points="92.62 108.75 91.18 106.18 91.18 106.14 92.64 108.75 92.62 108.75"/><polygon fill="#3bbcfc" points="92.59 108.75 91.18 106.22 91.18 106.18 92.62 108.75 92.59 108.75"/><polygon fill="#3cbcfc" points="92.57 108.75 91.18 106.26 91.18 106.22 92.59 108.75 92.57 108.75"/><polygon fill="#3dbdfc" points="92.55 108.75 91.18 106.31 91.18 106.26 92.57 108.75 92.55 108.75"/><polygon fill="#3ebdfc" points="92.52 108.75 91.18 106.35 91.18 106.31 92.55 108.75 92.52 108.75"/><polygon fill="#3fbdfc" points="92.5 108.75 91.18 106.39 91.18 106.35 92.52 108.75 92.5 108.75"/><polygon fill="#40befc" points="92.48 108.75 91.18 106.43 91.18 106.39 92.5 108.75 92.48 108.75"/><polygon fill="#41befc" points="92.45 108.75 91.18 106.47 91.18 106.43 92.48 108.75 92.45 108.75"/><polygon fill="#42befc" points="92.43 108.75 91.18 106.51 91.18 106.47 92.45 108.75 92.43 108.75"/><polygon fill="#43bffc" points="92.41 108.75 91.18 106.56 91.18 106.51 92.43 108.75 92.41 108.75"/><polygon fill="#44bffc" points="92.38 108.75 91.18 106.6 91.18 106.56 92.41 108.75 92.38 108.75"/><polygon fill="#45bffc" points="92.36 108.75 91.18 106.64 91.18 106.6 92.38 108.75 92.36 108.75"/><polygon fill="#46bffc" points="92.34 108.75 91.18 106.68 91.18 106.64 92.36 108.75 92.34 108.75"/><polygon fill="#47c0fc" points="92.31 108.75 91.18 106.72 91.18 106.68 92.34 108.75 92.31 108.75"/><polygon fill="#48c0fc" points="92.29 108.75 91.18 106.76 91.18 106.72 92.31 108.75 92.29 108.75"/><polygon fill="#49c0fb" points="92.27 108.75 91.18 106.81 91.18 106.76 92.29 108.75 92.27 108.75"/><polygon fill="#4ac1fb" points="92.24 108.75 91.18 106.85 91.18 106.81 92.27 108.75 92.24 108.75"/><polygon fill="#4bc1fb" points="92.22 108.75 91.18 106.89 91.18 106.85 92.24 108.75 92.22 108.75"/><polygon fill="#4cc1fb" points="92.2 108.75 91.18 106.93 91.18 106.89 92.22 108.75 92.2 108.75"/><polygon fill="#4dc2fb" points="92.17 108.75 91.18 106.97 91.18 106.93 92.2 108.75 92.17 108.75"/><polygon fill="#4ec2fb" points="92.15 108.75 91.18 107.02 91.18 106.97 92.17 108.75 92.15 108.75"/><polygon fill="#4fc2fb" points="92.13 108.75 91.18 107.06 91.18 107.02 92.15 108.75 92.13 108.75"/><polygon fill="#50c2fb" points="92.1 108.75 91.18 107.1 91.18 107.06 92.13 108.75 92.1 108.75"/><polygon fill="#51c3fb" points="92.08 108.75 91.18 107.14 91.18 107.1 92.1 108.75 92.08 108.75"/><polygon fill="#52c3fb" points="92.06 108.75 91.18 107.18 91.18 107.14 92.08 108.75 92.06 108.75"/><polygon fill="#53c3fb" points="92.03 108.75 91.18 107.22 91.18 107.18 92.06 108.75 92.03 108.75"/><polygon fill="#54c4fb" points="92.01 108.75 91.18 107.27 91.18 107.22 92.03 108.75 92.01 108.75"/><polygon fill="#55c4fb" points="91.99 108.75 91.18 107.31 91.18 107.27 92.01 108.75 91.99 108.75"/><polygon fill="#56c4fb" points="91.96 108.75 91.18 107.35 91.18 107.31 91.99 108.75 91.96 108.75"/><polygon fill="#57c4fb" points="91.94 108.75 91.18 107.39 91.18 107.35 91.96 108.75 91.94 108.75"/><polygon fill="#58c5fb" points="91.92 108.75 91.18 107.43 91.18 107.39 91.94 108.75 91.92 108.75"/><polygon fill="#59c5fb" points="91.89 108.75 91.18 107.47 91.18 107.43 91.92 108.75 91.89 108.75"/><polygon fill="#5ac5fb" points="91.87 108.75 91.18 107.52 91.18 107.47 91.89 108.75 91.87 108.75"/><polygon fill="#5bc6fa" points="91.85 108.75 91.18 107.56 91.18 107.52 91.87 108.75 91.85 108.75"/><polygon fill="#5cc6fa" points="91.82 108.75 91.18 107.6 91.18 107.56 91.85 108.75 91.82 108.75"/><polygon fill="#5dc6fa" points="91.8 108.75 91.18 107.64 91.18 107.6 91.82 108.75 91.8 108.75"/><polygon fill="#5ec7fa" points="91.78 108.75 91.18 107.68 91.18 107.64 91.8 108.75 91.78 108.75"/><polygon fill="#5fc7fa" points="91.75 108.75 91.18 107.73 91.18 107.68 91.78 108.75 91.75 108.75"/><polygon fill="#60c7fa" points="91.73 108.75 91.18 107.77 91.18 107.73 91.75 108.75 91.73 108.75"/><polygon fill="#61c7fa" points="91.71 108.75 91.18 107.81 91.18 107.77 91.73 108.75 91.71 108.75"/><polygon fill="#62c8fa" points="91.68 108.75 91.18 107.85 91.18 107.81 91.71 108.75 91.68 108.75"/><polygon fill="#63c8fa" points="91.66 108.75 91.18 107.89 91.18 107.85 91.68 108.75 91.66 108.75"/><polygon fill="#64c8fa" points="91.64 108.75 91.18 107.94 91.18 107.89 91.66 108.75 91.64 108.75"/><polygon fill="#65c9fa" points="91.61 108.75 91.18 107.98 91.18 107.94 91.64 108.75 91.61 108.75"/><polygon fill="#66c9fa" points="91.59 108.75 91.18 108.02 91.18 107.98 91.61 108.75 91.59 108.75"/><polygon fill="#67c9fa" points="91.57 108.75 91.18 108.06 91.18 108.02 91.59 108.75 91.57 108.75"/><polygon fill="#68c9fa" points="91.54 108.75 91.18 108.1 91.18 108.06 91.57 108.75 91.54 108.75"/><polygon fill="#69cafa" points="91.52 108.75 91.18 108.14 91.18 108.1 91.54 108.75 91.52 108.75"/><polygon fill="#6acafa" points="91.5 108.75 91.18 108.19 91.18 108.14 91.52 108.75 91.5 108.75"/><polygon fill="#6bcafa" points="91.47 108.75 91.18 108.23 91.18 108.19 91.5 108.75 91.47 108.75"/><polygon fill="#6ccbfa" points="91.45 108.75 91.18 108.27 91.18 108.23 91.47 108.75 91.45 108.75"/><polygon fill="#6dcbf9" points="91.43 108.75 91.18 108.31 91.18 108.27 91.45 108.75 91.43 108.75"/><polygon fill="#6ecbf9" points="91.4 108.75 91.18 108.35 91.18 108.31 91.43 108.75 91.4 108.75"/><polygon fill="#6fccf9" points="91.38 108.75 91.18 108.39 91.18 108.35 91.4 108.75 91.38 108.75"/><polygon fill="#70ccf9" points="91.36 108.75 91.18 108.44 91.18 108.39 91.38 108.75 91.36 108.75"/><polygon fill="#71ccf9" points="91.33 108.75 91.18 108.48 91.18 108.44 91.36 108.75 91.33 108.75"/><polygon fill="#72ccf9" points="91.31 108.75 91.18 108.52 91.18 108.48 91.33 108.75 91.31 108.75"/><polygon fill="#73cdf9" points="91.29 108.75 91.18 108.56 91.18 108.52 91.31 108.75 91.29 108.75"/><polygon fill="#74cdf9" points="91.26 108.75 91.18 108.6 91.18 108.56 91.29 108.75 91.26 108.75"/><polygon fill="#75cdf9" points="91.24 108.75 91.18 108.65 91.18 108.6 91.26 108.75 91.24 108.75"/><polygon fill="#76cef9" points="91.22 108.75 91.18 108.69 91.18 108.65 91.24 108.75 91.22 108.75"/><polygon fill="#77cef9" points="91.19 108.75 91.18 108.73 91.18 108.69 91.22 108.75 91.19 108.75"/><polygon fill="#78cef9" points="91.18 108.73 91.19 108.75 91.18 108.75 91.18 108.73"/></g><path fill="#0b99d1" d="M103.23,106.72a.39.39,0,0,1-.1.08,7,7,0,0,1-8.56,0l-.1-.08a6.54,6.54,0,0,1-2.26-3.37,7,7,0,0,0,8.13-.3l.11-.09c3.1-2.4,3.26-7,1.1-10.29-1.1-1.66-2.19-3.45-3.14-5.15.16-.37.31-.74.44-1.08a59.25,59.25,0,0,0,5.48,10C106.5,99.7,106.34,104.31,103.23,106.72Z" opacity=".5"/><path fill="none" stroke="#1a1a1a" stroke-linecap="round" stroke-linejoin="round" stroke-width="3" d="M104.33,96.43a59.25,59.25,0,0,1-5.48-10,54.71,54.71,0,0,1-5.48,10c-2.19,3.26-2,7.89,1.1,10.29l.11.08a7,7,0,0,0,8.55,0l.11-.08C106.34,104.32,106.5,99.7,104.33,96.43Z"/></svg>